{
  "accessors": [
    {
      "bufferView": 2,
      "componentType": 5126,
      "count": 65532,
      "max": [
        16861.181640625,
        16666.654296875,
        -235.05223083496094
      ],
      "min": [
        -18258.833984375,
        -18384.068359375,
        -19349.08203125
      ],
      "type": "VEC3"
    },
    {
      "bufferView": 2,
      "byteOffset": 786384,
      "componentType": 5126,
      "count": 65532,
      "max": [
        1.0,
        1.0,
        1.0
      ],
      "min": [
        -1.0,
        -1.0,
        -1.0
      ],
      "type": "VEC3"
    },
    {
      "bufferView": 1,
      "componentType": 5126,
      "count": 65532,
      "max": [
        12.766486167907715,
        2.6487362384796143
      ],
      "min": [
        -15.165029525756836,
        -1.564622067462551e-07
      ],
      "type": "VEC2"
    },
    {
      "bufferView": 1,
      "byteOffset": 524256,
      "componentType": 5126,
      "count": 65532,
      "max": [
        12.766486167907715,
        2.6487362384796143
      ],
      "min": [
        -15.165029525756836,
        -1.564622067462551e-07
      ],
      "type": "VEC2"
    },
    {
      "bufferView": 1,
      "byteOffset": 1048512,
      "componentType": 5126,
      "count": 65532,
      "max": [
        12.766486167907715,
        2.6487362384796143
      ],
      "min": [
        -15.165029525756836,
        -0.01196142565459013
      ],
      "type": "VEC2"
    },
    {
      "bufferView": 1,
      "byteOffset": 1572768,
      "componentType": 5126,
      "count": 65532,
      "max": [
        12.766486167907715,
        2.6487362384796143
      ],
      "min": [
        -15.165029525756836,
        -0.018654264509677887
      ],
      "type": "VEC2"
    },
    {
      "bufferView": 1,
      "byteOffset": 2097024,
      "componentType": 5126,
      "count": 65532,
      "max": [
        12.766486167907715,
        2.6487362384796143
      ],
      "min": [
        -15.165029525756836,
        -0.0002555247046984732
      ],
      "type": "VEC2"
    },
    {
      "bufferView": 1,
      "byteOffset": 2621280,
      "componentType": 5126,
      "count": 65532,
      "max": [
        12.766486167907715,
        2.6487362384796143
      ],
      "min": [
        -15.165029525756836,
        -8.749878907110542e-05
      ],
      "type": "VEC2"
    },
    {
      "bufferView": 1,
      "byteOffset": 3145536,
      "componentType": 5126,
      "count": 65532,
      "max": [
        12.766486167907715,
        2.6487362384796143
      ],
      "min": [
        -15.165029525756836,
        -0.0058206599205732346
      ],
      "type": "VEC2"
    },
    {
      "bufferView": 1,
      "byteOffset": 3669792,
      "componentType": 5126,
      "count": 65532,
      "max": [
        12.766486167907715,
        2.6487362384796143
      ],
      "min": [
        -15.165029525756836,
        -7.782231114106253e-05
      ],
      "type": "VEC2"
    },
    {
      "bufferView": 0,
      "componentType": 5125,
      "count": 276549,
      "type": "SCALAR"
    },
    {
      "bufferView": 2,
      "byteOffset": 1572768,
      "componentType": 5126,
      "count": 41719,
      "max": [
        16844.0546875,
        16665.65625,
        -236.05007934570313
      ],
      "min": [
        -18257.833984375,
        -18383.0703125,
        -19348.083984375
      ],
      "type": "VEC3"
    },
    {
      "bufferView": 2,
      "byteOffset": 2073396,
      "componentType": 5126,
      "count": 41719,
      "max": [
        1.0,
        1.0,
        1.0
      ],
      "min": [
        -1.0,
        -1.0,
        -1.0
      ],
      "type": "VEC3"
    },
    {
      "bufferView": 1,
      "byteOffset": 4194048,
      "componentType": 5126,
      "count": 41719,
      "max": [
        1.0000001192092896,
        1.0403624773025513
      ],
      "min": [
        0.0,
        -1.564622067462551e-07
      ],
      "type": "VEC2"
    },
    {
      "bufferView": 1,
      "byteOffset": 4527800,
      "componentType": 5126,
      "count": 41719,
      "max": [
        0.9999997019767761,
        1.0000001192092896
      ],
      "min": [
        0.0,
        -1.564622067462551e-07
      ],
      "type": "VEC2"
    },
    {
      "bufferView": 1,
      "byteOffset": 4861552,
      "componentType": 5126,
      "count": 41719,
      "max": [
        1.0000005960464478,
        1.0371164083480835
      ],
      "min": [
        0.0,
        -0.01196142565459013
      ],
      "type": "VEC2"
    },
    {
      "bufferView": 1,
      "byteOffset": 5195304,
      "componentType": 5126,
      "count": 41719,
      "max": [
        1.0000004768371582,
        1.0433037281036377
      ],
      "min": [
        0.0,
        -0.018654264509677887
      ],
      "type": "VEC2"
    },
    {
      "bufferView": 1,
      "byteOffset": 5529056,
      "componentType": 5126,
      "count": 41719,
      "max": [
        1.000000238418579,
        1.000226616859436
      ],
      "min": [
        0.0,
        -0.0002555247046984732
      ],
      "type": "VEC2"
    },
    {
      "bufferView": 1,
      "byteOffset": 5862808,
      "componentType": 5126,
      "count": 41719,
      "max": [
        0.9999997019767761,
        1.0000001192092896
      ],
      "min": [
        0.0,
        -8.749878907110542e-05
      ],
      "type": "VEC2"
    },
    {
      "bufferView": 1,
      "byteOffset": 6196560,
      "componentType": 5126,
      "count": 41719,
      "max": [
        1.0000005960464478,
        1.0000001192092896
      ],
      "min": [
        0.0,
        -0.0058206599205732346
      ],
      "type": "VEC2"
    },
    {
      "bufferView": 1,
      "byteOffset": 6530312,
      "componentType": 5126,
      "count": 41719,
      "max": [
        0.9999998211860657,
        1.0000001192092896
      ],
      "min": [
        0.0,
        -7.782231114106253e-05
      ],
      "type": "VEC2"
    },
    {
      "bufferView": 0,
      "byteOffset": 1106196,
      "componentType": 5125,
      "count": 152211,
      "type": "SCALAR"
    },
    {
      "bufferView": 3,
      "componentType": 5126,
      "count": 4,
      "max": [
        3.0
      ],
      "min": [
        0.0
      ],
      "type": "SCALAR"
    },
    {
      "bufferView": 4,
      "componentType": 5126,
      "count": 4,
      "max": [
        0.009999999776482582,
        0.009999999776482582,
        0.009999999776482582
      ],
      "min": [
        0.009999998845160007,
        0.009999998845160007,
        0.009999999776482582
      ],
      "type": "VEC3"
    },
    {
      "bufferView": 3,
      "byteOffset": 16,
      "componentType": 5126,
      "count": 91,
      "max": [
        3.0
      ],
      "min": [
        0.0
      ],
      "type": "SCALAR"
    },
    {
      "bufferView": 5,
      "componentType": 5126,
      "count": 91,
      "max": [
        0.7071068286895752,
        0.4908621311187744,
        0.7071067690849304,
        0.7071067094802856
      ],
      "min": [
        -0.4915280044078827,
        -0.7071066498756409,
        -0.4908622205257416,
        -0.4915279150009155
      ],
      "type": "VEC4"
    }
  ],
  "animations": [
    {
      "channels": [
        {
          "sampler": 0,
          "target": {
            "node": 4,
            "path": "scale"
          }
        },
        {
          "sampler": 1,
          "target": {
            "node": 4,
            "path": "rotation"
          }
        }
      ],
      "name": "pTorus21|pTorus21Action",
      "samplers": [
        {
          "input": 22,
          "interpolation": "LINEAR",
          "output": 23
        },
        {
          "input": 24,
          "interpolation": "LINEAR",
          "output": 25
        }
      ]
    }
  ],
  "asset": {
    "extras": {
      "author": "msurovik (https://sketchfab.com/msurovik)",
      "license": "CC-BY-4.0 (http://creativecommons.org/licenses/by/4.0/)",
      "source": "https://sketchfab.com/3d-models/swirl-8bdb91b37091455cb84849ebdb90d6ae",
      "title": "swirl"
    },
    "generator": "Sketchfab-10.73.0",
    "version": "2.0"
  },
  "bufferViews": [
    {
      "buffer": 0,
      "byteLength": 1715040,
      "name": "floatBufferViews",
      "target": 34963
    },
    {
      "buffer": 0,
      "byteLength": 6864064,
      "byteOffset": 1715040,
      "byteStride": 8,
      "name": "floatBufferViews",
      "target": 34962
    },
    {
      "buffer": 0,
      "byteLength": 2574024,
      "byteOffset": 8579104,
      "byteStride": 12,
      "name": "floatBufferViews",
      "target": 34962
    },
    {
      "buffer": 0,
      "byteLength": 380,
      "byteOffset": 11153128,
      "name": "floatBufferViews"
    },
    {
      "buffer": 0,
      "byteLength": 48,
      "byteOffset": 11153508,
      "byteStride": 12,
      "name": "floatBufferViews"
    },
    {
      "buffer": 0,
      "byteLength": 1456,
      "byteOffset": 11153556,
      "byteStride": 16,
      "name": "floatBufferViews"
    }
  ],
  "buffers": [
    {
      "byteLength": 11155012,
      "uri": "scene.bin"
    }
  ],
  "images": [
    {
      "uri": "textures/Material_metallicRoughness.png"
    }
  ],
  "materials": [
    {
      "alphaMode": "BLEND",
      "doubleSided": true,
      "name": "Material",
      "pbrMetallicRoughness": {
        "baseColorFactor": [
          0.158353967041432,
          0.015859613050281596,
          0.017191168333309442,
          0.30513711611827304
        ],
        "metallicRoughnessTexture": {
          "index": 0
        },
        "roughnessFactor": 0.8211145618000169
      }
    }
  ],
  "meshes": [
    {
      "name": "pTorus21_Material_0",
      "primitives": [
        {
          "attributes": {
            "NORMAL": 1,
            "POSITION": 0,
            "TEXCOORD_0": 2,
            "TEXCOORD_1": 3,
            "TEXCOORD_2": 4,
            "TEXCOORD_3": 5,
            "TEXCOORD_4": 6,
            "TEXCOORD_5": 7,
            "TEXCOORD_6": 8,
            "TEXCOORD_7": 9
          },
          "indices": 10,
          "material": 0,
          "mode": 4
        }
      ]
    },
    {
      "name": "pTorus21_Material_0",
      "primitives": [
        {
          "attributes": {
            "NORMAL": 12,
            "POSITION": 11,
            "TEXCOORD_0": 13,
            "TEXCOORD_1": 14,
            "TEXCOORD_2": 15,
            "TEXCOORD_3": 16,
            "TEXCOORD_4": 17,
            "TEXCOORD_5": 18,
            "TEXCOORD_6": 19,
            "TEXCOORD_7": 20
          },
          "indices": 21,
          "material": 0,
          "mode": 4
        }
      ]
    }
  ],
  "nodes": [
    {
      "children": [
        1
      ],
      "matrix": [
        1.0,
        0.0,
        0.0,
        0.0,
        0.0,
        2.220446049250313e-16,
        -1.0,
        0.0,
        0.0,
        1.0,
        2.220446049250313e-16,
        0.0,
        0.0,
        0.0,
        0.0,
        1.0
      ],
      "name": "Sketchfab_model"
    },
    {
      "children": [
        2
      ],
      "matrix": [
        1.0,
        0.0,
        0.0,
        0.0,
        0.0,
        0.0,
        1.0,
        0.0,
        0.0,
        -1.0,
        0.0,
        0.0,
        0.0,
        0.0,
        0.0,
        1.0
      ],
      "name": "2c7db4f45aa141ebb5914b4414fe07ca.fbx"
    },
    {
      "children": [
        3
      ],
      "name": "Object_2"
    },
    {
      "children": [
        4
      ],
      "name": "RootNode"
    },
    {
      "children": [
        5,
        6
      ],
      "name": "pTorus21",
      "rotation": [
        0.7066971659660339,
        0.024067819118499756,
        -0.024067822843790054,
        0.7066970467567444
      ],
      "scale": [
        0.009999999776482582,
        0.009999999776482582,
        0.009999999776482582
      ]
    },
    {
      "mesh": 0,
      "name": "pTorus21_Material_0"
    },
    {
      "mesh": 1,
      "name": "pTorus21_Material_0"
    }
  ],
  "samplers": [
    {
      "magFilter": 9729,
      "minFilter": 9987,
      "wrapS": 10497,
      "wrapT": 10497
    }
  ],
  "scene": 0,
  "scenes": [
    {
      "name": "Sketchfab_Scene",
      "nodes": [
        0
      ]
    }
  ],
  "textures": [
    {
      "sampler": 0,
      "source": 0
    }
  ]
}
