{
  "accessors": [
    {
      "bufferView": 1,
      "componentType": 5126,
      "count": 1710,
      "max": [
        6.5793619155883789,
        9.9842441159125883e-07,
        15.884869575500488
      ],
      "min": [
        -11.420639991760254,
        -1.0000009536743164,
        -0.11513470113277435
      ],
      "type": "VEC3"
    },
    {
      "bufferView": 1,
      "byteOffset": 20520,
      "componentType": 5126,
      "count": 1710,
      "max": [
        1,
        1,
        1
      ],
      "min": [
        -0.99985635280609131,
        -1,
        -1
      ],
      "type": "VEC3"
    },
    {
      "bufferView": 0,
      "componentType": 5125,
      "count": 3408,
      "max": [
        1709
      ],
      "min": [
        0
      ],
      "type": "SCALAR"
    }
  ],
  "asset": {
    "extras": {
      "author": "Vkdkdsl (https://sketchfab.com/Vkdkdsl)",
      "license": "CC-BY-4.0 (http://creativecommons.org/licenses/by/4.0/)",
      "source": "https://sketchfab.com/3d-models/dreamcast-swirl-2ae8d00b3eef45ebb3b17a81d0c115ed",
      "title": "Dreamcast Swirl"
    },
    "generator": "Sketchfab-8.95.0",
    "version": "2.0"
  },
  "bufferViews": [
    {
      "buffer": 0,
      "byteLength": 13632,
      "byteOffset": 0,
      "name": "floatBufferViews",
      "target": 34963
    },
    {
      "buffer": 0,
      "byteLength": 41040,
      "byteOffset": 13632,
      "byteStride": 12,
      "name": "floatBufferViews",
      "target": 34962
    }
  ],
  "buffers": [
    {
      "byteLength": 54672,
      "uri": "scene.bin"
    }
  ],
  "materials": [
    {
      "doubleSided": true,
      "name": "DefaultMaterial",
      "pbrMetallicRoughness": {
        "baseColorFactor": [
          0.0027335283918209037,
          0.2509711503845562,
          0.76164514880585221,
          1
        ],
        "metallicFactor": 0,
        "roughnessFactor": 0.59999999999999998
      }
    }
  ],
  "meshes": [
    {
      "primitives": [
        {
          "attributes": {
            "NORMAL": 1,
            "POSITION": 0
          },
          "indices": 2,
          "material": 0,
          "mode": 4
        }
      ]
    }
  ],
  "nodes": [
    {
      "children": [
        1
      ],
      "name": "RootNode (gltf orientation matrix)",
      "rotation": [
        -0.70710678118654746,
        -0,
        -0,
        0.70710678118654757
      ]
    },
    {
      "children": [
        2
      ],
      "name": "RootNode (model correction matrix)"
    },
    {
      "children": [
        3
      ],
      "name": "fa9382708fa04230ad07367cc5d6c56a.obj.cleaner.materialmerger.gles"
    },
    {
      "mesh": 0,
      "name": ""
    }
  ],
  "scene": 0,
  "scenes": [
    {
      "name": "OSG_Scene",
      "nodes": [
        0
      ]
    }
  ]
}

