{
  "accessors": [
    {
      "bufferView": 2,
      "componentType": 5126,
      "count": 3186,
      "max": [
        1.000026822090149,
        0.08760245144367218,
        1.0002284049987793
      ],
      "min": [
        -0.9996862411499023,
        -5.036996841430664,
        -0.9996612071990967
      ],
      "type": "VEC3"
    },
    {
      "bufferView": 2,
      "byteOffset": 38232,
      "componentType": 5126,
      "count": 3186,
      "max": [
        0.9999992847442627,
        1.0,
        0.9999978542327881
      ],
      "min": [
        -0.9999992847442627,
        -1.0,
        -0.9999992847442627
      ],
      "type": "VEC3"
    },
    {
      "bufferView": 1,
      "componentType": 5126,
      "count": 3186,
      "max": [
        0.5234730243682861,
        0.8177999258041382
      ],
      "min": [
        0.5234730243682861,
        0.1540355086326599
      ],
      "type": "VEC2"
    },
    {
      "bufferView": 0,
      "componentType": 5125,
      "count": 4938,
      "type": "SCALAR"
    },
    {
      "bufferView": 2,
      "byteOffset": 76464,
      "componentType": 5126,
      "count": 16800,
      "max": [
        1.0029354095458984,
        0.2643003463745117,
        1.0029354095458984
      ],
      "min": [
        -1.0021895170211792,
        -4.823800086975098,
        -1.0021897554397583
      ],
      "type": "VEC3"
    },
    {
      "bufferView": 2,
      "byteOffset": 278064,
      "componentType": 5126,
      "count": 16800,
      "max": [
        0.9920783042907715,
        0.9435538053512573,
        0.9920786619186401
      ],
      "min": [
        -0.9920783042907715,
        -0.9435605406761169,
        -0.9920786619186401
      ],
      "type": "VEC3"
    },
    {
      "bufferView": 1,
      "byteOffset": 25488,
      "componentType": 5126,
      "count": 16800,
      "max": [
        0.5,
        0.9899352192878723
      ],
      "min": [
        0.5,
        0.9899352192878723
      ],
      "type": "VEC2"
    },
    {
      "bufferView": 0,
      "byteOffset": 19752,
      "componentType": 5125,
      "count": 16800,
      "type": "SCALAR"
    },
    {
      "bufferView": 2,
      "byteOffset": 479664,
      "componentType": 5126,
      "count": 6452,
      "max": [
        1.0000044107437134,
        0.44189587235450745,
        0.9996947050094604
      ],
      "min": [
        -0.9986417889595032,
        -4.950978755950928,
        -0.9996004104614258
      ],
      "type": "VEC3"
    },
    {
      "bufferView": 2,
      "byteOffset": 557088,
      "componentType": 5126,
      "count": 6452,
      "max": [
        0.9999994039535522,
        0.9655024409294128,
        1.0
      ],
      "min": [
        -0.9997203350067139,
        -0.9655024409294128,
        -0.9999998807907104
      ],
      "type": "VEC3"
    },
    {
      "bufferView": 1,
      "byteOffset": 159888,
      "componentType": 5126,
      "count": 6452,
      "max": [
        0.5,
        0.959942102432251
      ],
      "min": [
        0.5,
        0.1553395390510559
      ],
      "type": "VEC2"
    },
    {
      "bufferView": 0,
      "byteOffset": 86952,
      "componentType": 5125,
      "count": 10920,
      "type": "SCALAR"
    },
    {
      "bufferView": 2,
      "byteOffset": 634512,
      "componentType": 5126,
      "count": 24,
      "max": [
        0.9659256935119629,
        0.08760245144367218,
        1.4825547933578491
      ],
      "min": [
        -0.13424760103225708,
        0.0,
        0.05188891291618347
      ],
      "type": "VEC3"
    },
    {
      "bufferView": 2,
      "byteOffset": 634800,
      "componentType": 5126,
      "count": 24,
      "max": [
        0.9659304022789001,
        1.0,
        0.9659304022789001
      ],
      "min": [
        -0.9659304022789001,
        -1.0,
        -0.9659304022789001
      ],
      "type": "VEC3"
    },
    {
      "bufferView": 1,
      "byteOffset": 211504,
      "componentType": 5126,
      "count": 24,
      "max": [
        0.5234730243682861,
        0.1540355086326599
      ],
      "min": [
        0.5234730243682861,
        0.1540355086326599
      ],
      "type": "VEC2"
    },
    {
      "bufferView": 0,
      "byteOffset": 130632,
      "componentType": 5125,
      "count": 36,
      "type": "SCALAR"
    }
  ],
  "asset": {
    "extras": {
      "author": "Spark (https://sketchfab.com/muammar.yacoob)",
      "license": "CC-BY-4.0 (http://creativecommons.org/licenses/by/4.0/)",
      "source": "https://sketchfab.com/3d-models/stairs-28584e2acd7d477f80b34b3f1e76f5ea",
      "title": "Stairs"
    },
    "generator": "Sketchfab-10.91.0",
    "version": "2.0"
  },
  "bufferViews": [
    {
      "buffer": 0,
      "byteLength": 130776,
      "name": "floatBufferViews",
      "target": 34963
    },
    {
      "buffer": 0,
      "byteLength": 211696,
      "byteOffset": 130776,
      "byteStride": 8,
      "name": "floatBufferViews",
      "target": 34962
    },
    {
      "buffer": 0,
      "byteLength": 635088,
      "byteOffset": 342472,
      "byteStride": 12,
      "name": "floatBufferViews",
      "target": 34962
    }
  ],
  "buffers": [
    {
      "byteLength": 977560,
      "uri": "scene.bin"
    }
  ],
  "images": [
    {
      "uri": "textures/Rough_baseColor.png"
    },
    {
      "uri": "textures/Glass_baseColor.png"
    }
  ],
  "materials": [
    {
      "doubleSided": true,
      "name": "Rough",
      "pbrMetallicRoughness": {
        "baseColorTexture": {
          "index": 0
        },
        "metallicFactor": 0.0
      }
    },
    {
      "alphaMode": "BLEND",
      "doubleSided": true,
      "emissiveFactor": [
        1.0,
        0.9299619850237812,
        1.0
      ],
      "name": "Glass",
      "pbrMetallicRoughness": {
        "baseColorFactor": [
          0.504045,
          0.687155,
          0.8,
          1.0
        ],
        "baseColorTexture": {
          "index": 1
        },
        "metallicFactor": 0.0,
        "roughnessFactor": 0.086765
      }
    },
    {
      "doubleSided": true,
      "name": "Metal",
      "pbrMetallicRoughness": {
        "baseColorFactor": [
          0.8,
          0.8,
          0.8,
          1.0
        ],
        "roughnessFactor": 0.11483284105404298
      }
    }
  ],
  "meshes": [
    {
      "name": "Object_0",
      "primitives": [
        {
          "attributes": {
            "NORMAL": 1,
            "POSITION": 0,
            "TEXCOORD_0": 2
          },
          "indices": 3,
          "material": 0,
          "mode": 4
        }
      ]
    },
    {
      "name": "Object_1",
      "primitives": [
        {
          "attributes": {
            "NORMAL": 5,
            "POSITION": 4,
            "TEXCOORD_0": 6
          },
          "indices": 7,
          "material": 1,
          "mode": 4
        }
      ]
    },
    {
      "name": "Object_2",
      "primitives": [
        {
          "attributes": {
            "NORMAL": 9,
            "POSITION": 8,
            "TEXCOORD_0": 10
          },
          "indices": 11,
          "material": 2,
          "mode": 4
        }
      ]
    },
    {
      "name": "Object_3",
      "primitives": [
        {
          "attributes": {
            "NORMAL": 13,
            "POSITION": 12,
            "TEXCOORD_0": 14
          },
          "indices": 15,
          "material": 0,
          "mode": 4
        }
      ]
    }
  ],
  "nodes": [
    {
      "children": [
        1
      ],
      "matrix": [
        1.0,
        0.0,
        0.0,
        0.0,
        0.0,
        2.220446049250313e-16,
        -1.0,
        0.0,
        0.0,
        1.0,
        2.220446049250313e-16,
        0.0,
        0.0,
        0.0,
        0.0,
        1.0
      ],
      "name": "Sketchfab_model"
    },
    {
      "children": [
        2
      ],
      "name": "root"
    },
    {
      "children": [
        3,
        7
      ],
      "matrix": [
        1.0,
        0.0,
        0.0,
        0.0,
        0.0,
        2.220446049250313e-16,
        1.0,
        0.0,
        0.0,
        -1.0,
        2.220446049250313e-16,
        0.0,
        0.0,
        0.0,
        0.0,
        1.0
      ],
      "name": "GLTF_SceneRootNode"
    },
    {
      "children": [
        4,
        5,
        6
      ],
      "matrix": [
        1.0,
        0.0,
        0.0,
        0.0,
        0.0,
        1.0,
        0.0,
        0.0,
        0.0,
        0.0,
        1.0,
        0.0,
        0.0,
        2.577705144882202,
        0.0,
        1.0
      ],
      "name": "Circle_1"
    },
    {
      "mesh": 0,
      "name": "Object_4"
    },
    {
      "mesh": 1,
      "name": "Object_5"
    },
    {
      "mesh": 2,
      "name": "Object_6"
    },
    {
      "children": [
        8
      ],
      "matrix": [
        0.9513083575834792,
        0.0,
        -0.30824082920960244,
        0.0,
        0.0,
        1.0,
        0.0,
        0.0,
        0.30824082920960244,
        0.0,
        0.9513083575834792,
        0.0,
        0.0,
        2.577705144882202,
        0.0,
        1.0
      ],
      "name": "Circle.001_2"
    },
    {
      "mesh": 3,
      "name": "Object_8"
    }
  ],
  "samplers": [
    {
      "magFilter": 9729,
      "minFilter": 9987,
      "wrapS": 10497,
      "wrapT": 10497
    }
  ],
  "scene": 0,
  "scenes": [
    {
      "name": "Sketchfab_Scene",
      "nodes": [
        0
      ]
    }
  ],
  "textures": [
    {
      "sampler": 0,
      "source": 0
    },
    {
      "sampler": 0,
      "source": 1
    }
  ]
}
